<?xml version="1.0" encoding="UTF-8"?>
<svg id="Ebene_2" data-name="Ebene 2" xmlns="http://www.w3.org/2000/svg" xmlns:xlink="http://www.w3.org/1999/xlink" viewBox="0 0 70.7 63.05">
  <defs>
    <style>
      .cls-1 {
        fill: #011f26;
      }

      .cls-2 {
        clip-path: url(#clippath);
      }

      .cls-3 {
        fill: none;
      }
    </style>
    <clipPath id="clippath">
      <rect class="cls-3" width="70.7" height="63.05"/>
    </clipPath>
  </defs>
  <g id="Text">
    <g class="cls-2">
      <g id="Gruppe_9" data-name="Gruppe 9">
        <path id="Pfad_16" data-name="Pfad 16" class="cls-1" d="M69.57,35.65c-1.77,1.77-4.59,1.9-6.52,.3l-3.44-3.13v27.7c.07,.91-.42,1.78-1.24,2.18-.58,.28-1.22,.4-1.85,.35h-13.06c-.44,.05-.89-.07-1.24-.35-.26-.36-.37-.8-.33-1.24v-13.68h-13.08v13.68c.04,.43-.06,.87-.3,1.24-.37,.25-.82,.37-1.26,.35H14.2c-.64,.06-1.28-.06-1.86-.35-.84-.44-1.42-1.25-1.56-2.18v-27.42l-3.13,2.85c-.91,.68-1.99,1.11-3.12,1.24-.63,0-1.25-.15-1.82-.42-.6-.28-1.14-.66-1.6-1.12-1.6-1.93-1.46-4.77,.32-6.54L32.24,1.15c1.79-1.54,4.43-1.54,6.22,0l30.78,27.96c1.81,1.76,1.95,4.62,.32,6.54"/>
      </g>
    </g>
  </g>
</svg>