<?xml version="1.0" standalone="no"?>
<!DOCTYPE svg PUBLIC "-//W3C//DTD SVG 20010904//EN"
 "http://www.w3.org/TR/2001/REC-SVG-20010904/DTD/svg10.dtd">
<svg version="1.0" xmlns="http://www.w3.org/2000/svg"
 width="512.000000pt" height="512.000000pt" viewBox="0 0 512.000000 512.000000"
 preserveAspectRatio="xMidYMid meet">

<g transform="translate(0.000000,512.000000) scale(0.100000,-0.100000)"
fill="#000000" stroke="none">
<path d="M1080 5115 c-8 -2 -49 -9 -90 -15 -420 -68 -795 -393 -928 -805 -60
-184 -57 -99 -57 -1735 0 -1633 -3 -1551 56 -1732 97 -300 319 -557 607 -702
85 -43 216 -87 317 -107 104 -21 2666 -21 2770 0 153 30 305 94 436 181 88 59
655 624 720 717 93 135 158 288 190 448 21 104 21 2666 0 2770 -95 479 -440
838 -921 958 -84 21 -94 21 -1585 23 -825 1 -1507 1 -1515 -1z m3030 -417
c163 -49 276 -114 375 -215 71 -70 146 -184 175 -261 58 -155 54 -68 58 -1304
l2 -1136 -347 -4 c-319 -4 -355 -6 -428 -27 -284 -77 -499 -292 -576 -576 -21
-73 -23 -109 -27 -428 l-4 -347 -1136 2 c-1236 4 -1149 0 -1304 58 -177 66
-372 261 -438 438 -59 156 -55 42 -55 1662 0 1620 -4 1506 55 1662 69 186 263
374 458 445 144 53 89 51 1667 50 1341 -2 1475 -4 1525 -19z m576 -3345 c-13
-52 -73 -168 -119 -228 -60 -79 -538 -552 -600 -594 -53 -36 -157 -86 -199
-97 l-28 -6 0 279 c0 159 5 305 11 338 29 157 154 288 309 321 35 8 160 13
344 13 l288 1 -6 -27z"/>
<path d="M1312 3929 c-47 -14 -109 -79 -123 -131 -23 -89 12 -182 88 -229 l38
-24 1245 0 1245 0 38 24 c21 13 50 42 65 64 23 34 27 52 27 107 0 55 -4 73
-27 107 -15 22 -44 51 -65 64 l-38 24 -1230 2 c-758 1 -1243 -2 -1263 -8z"/>
<path d="M1312 2749 c-47 -14 -109 -79 -123 -131 -23 -89 12 -182 88 -229 l38
-24 1245 0 1245 0 38 24 c21 13 50 42 65 64 23 34 27 52 27 107 0 55 -4 73
-27 107 -15 22 -44 51 -65 64 l-38 24 -1230 2 c-758 1 -1243 -2 -1263 -8z"/>
<path d="M1312 1569 c-47 -14 -109 -80 -123 -131 -23 -89 12 -182 88 -229 l38
-24 656 0 655 0 41 27 c62 41 88 90 88 168 0 78 -26 127 -88 168 l-41 27 -640
2 c-387 1 -654 -2 -674 -8z"/>
</g>
</svg>
