<?xml version="1.0" encoding="UTF-8"?>
<svg id="Ebene_2" data-name="Ebene 2" xmlns="http://www.w3.org/2000/svg" xmlns:xlink="http://www.w3.org/1999/xlink" viewBox="0 0 170 217.33">
  <defs>
    <style>
      .cls-1 {
        fill: #fff;
      }

      .cls-2 {
        fill: url(#Unbenannter_Verlauf_2);
      }

      .cls-3 {
        fill: #011f26;
      }

      .cls-4 {
        clip-path: url(#clippath-1);
      }

      .cls-5 {
        clip-path: url(#clippath);
      }

      .cls-6 {
        fill: none;
      }

      .cls-7 {
        fill: url(#Unbenannter_Verlauf_3);
      }
    </style>
    <linearGradient id="Unbenannter_Verlauf_3" data-name="Unbenannter Verlauf 3" x1="-1171.72" y1="941.76" x2="-1171.72" y2="940.76" gradientTransform="translate(199276.98 160098.8) scale(170 -170)" gradientUnits="userSpaceOnUse">
      <stop offset="0" stop-color="#011f26"/>
      <stop offset="1" stop-color="#395923"/>
    </linearGradient>
    <linearGradient id="Unbenannter_Verlauf_2" data-name="Unbenannter Verlauf 2" x1="-1171.25" y1="941.78" x2="-1170.65" y2="940.88" gradientTransform="translate(179240.37 144107.84) scale(153 -153)" gradientUnits="userSpaceOnUse">
      <stop offset="0" stop-color="#fff" stop-opacity=".49"/>
      <stop offset="1" stop-color="gray" stop-opacity=".35"/>
    </linearGradient>
    <clipPath id="clippath">
      <rect class="cls-6" x="28.91" y="38.64" width="112.18" height="110.74"/>
    </clipPath>
    <clipPath id="clippath-1">
      <rect class="cls-6" x="5.75" y="184.35" width="158.5" height="32.97"/>
    </clipPath>
  </defs>
  <g id="Text">
    <g>
      <g id="Gruppe_20" data-name="Gruppe 20">
        <g id="Ellipse_2" data-name="Ellipse 2">
          <circle class="cls-7" cx="85" cy="85" r="85"/>
        </g>
        <circle id="Ellipse_1-2" data-name="Ellipse 1-2" class="cls-2" cx="85.5" cy="85.5" r="76.5"/>
        <g id="Gruppe_2" data-name="Gruppe 2">
          <g class="cls-5">
            <g id="Gruppe_1" data-name="Gruppe 1">
              <path id="Pfad_1" data-name="Pfad 1" class="cls-1" d="M99.52,83.16c-17.3,.81-19.92-18.11-12.93-30.11-5.7,3.3-8.06,8.55-8.57,15.45-2.4-4.72-1.52-8.82,.04-12.94-6.79,.64-26.61,15.77-31.01,23.67,8.49-2.79,15.99-6.52,25.26-5.75-8.85,21.72-35.1-10.23-32.23,35.62-3.09-6.46-4.45-13.61-3.95-20.76-13.1,6.46-5.55,2.78,.53-3.94,3.65-18.84,21.25-29.45,35.71-39.06-3.9,.12-15.17,6.77-26.84,15.97,3.82-6.49,10.11-13.2,.12-4.72,.4-4.8-.05-9.32-3.01-13.74,6.66-.39,11.52,6.05,16.99,6.34,22.89-14.88,52.74-12.1,77.3-3.53-6.38,1.12-25.49,17.98-28.28,8.25,.33-2.15-.67-2.52-2.4-2.35-19.62-.6-26.12,26.42-6.75,31.58m14.62-29.72c-1.94-2.5-3-2.21-4.04,.36,.76,2.76,2.26,1.67,4.04-.36"/>
              <path id="Pfad_2" data-name="Pfad 2" class="cls-1" d="M58.84,119.91c-1.29,3.39-1.12,3.91,1.29,4.42-.29,3.56,4.07,3.68,5.82,6.77,2.16-7.21,7.08-11.44,12.24-15.59-7.99,9.99-9.45,22.5-9.32,33.88-2.4-3.93-1.36-19.11-7.47-16.78-1.64-4.5-3.9,1.5-4.94-3.74-2.36,3.21-2.6,6.52-2.59,9.96-3.08-2.67-3.23-13.77-3.51-19.4l-2.64,1.87c-.88-24.72,68.75-15.22,88.6-56.28-15.77,39.54-72.22,34.73-77.47,54.88"/>
              <path id="Pfad_3" data-name="Pfad 3" class="cls-1" d="M139.37,47.08l-3.41,3.9,4.36-.88c-6.54,4.36-18.19,5.38-21.13,13.78-.18,1.47-1.37,2.62-2.85,2.74,3.3-6.77,16.17-20.18,23.03-19.53"/>
              <path id="Pfad_4" data-name="Pfad 4" class="cls-1" d="M100.41,74.29c-8.22,2.03-9.45-7.13-4.85-12.1-.24,4.8-2.44,10.3,4.85,12.1"/>
              <path id="Pfad_5" data-name="Pfad 5" class="cls-1" d="M132.19,56.23c2.58-1.64,5-3.75,8.89-3.38l-8.89,3.38"/>
            </g>
          </g>
        </g>
      </g>
      <g id="Gruppe_4" data-name="Gruppe 4">
        <g class="cls-4">
          <g id="Gruppe_3" data-name="Gruppe 3">
            <path id="Pfad_6" data-name="Pfad 6" class="cls-3" d="M27.23,185.51l.25,.54-.83,8.18-4.72,.14-.25-.18-.47-4.47c-.6-.17-1.22-.25-1.84-.25-3.49,0-6.67,2.16-6.67,7.28s3.1,7.28,7.28,7.28c2.14-.09,4.24-.53,6.24-1.3l.25,.04,1.12,5.01c-2.51,1.36-5.33,2.05-8.18,1.98-7.86,0-13.66-4.72-13.66-12.79s5.44-12.61,13.19-12.61c2.8,.03,5.59,.41,8.29,1.15"/>
            <path id="Pfad_7" data-name="Pfad 7" class="cls-3" d="M45.82,197.54l-.14,5.73c-.04,1.08,.29,1.37,1.01,1.37,.43,.01,.87-.01,1.3-.07v4c-1.09,.78-2.4,1.2-3.75,1.19-2.45,0-3.39-1.23-3.82-2.49-1.33,1.63-3.34,2.56-5.44,2.52-3.17,0-5.87-1.91-5.87-5.62,0-4.94,4.86-6.96,10.74-6.81v-.25c0-1.88-.9-2.42-2.99-2.42-1.77,.04-3.52,.41-5.15,1.08l-1.41-4.32c2.47-.91,5.08-1.39,7.71-1.4,6.2,0,7.93,2.96,7.82,7.5m-5.95,3.53c-3.32,0-4.83,.9-4.83,2.45-.02,.96,.74,1.75,1.7,1.77,.08,0,.16,0,.25-.01,1.12-.03,2.17-.57,2.85-1.47l.03-2.74Z"/>
            <path id="Pfad_8" data-name="Pfad 8" class="cls-3" d="M69.17,199.67c0,6.34-3.64,10.02-8.76,10.02-1.21,.03-2.4-.3-3.42-.94v4.22l2.99,.61v3.75h-11.03v-3.64l2.13-.61v-16.86l-2.27-.72v-4.25l6.38-1.15,.76,3.31c1.18-2.04,3.37-3.3,5.73-3.28,4.25,0,7.5,3.64,7.5,9.55m-12.22-2.56v6.85c.66,.68,1.57,1.07,2.52,1.08,2.49,0,3.46-2.45,3.46-4.94s-.87-4.79-3.06-4.79c-1.21,.09-2.3,.76-2.92,1.8"/>
            <path id="Pfad_9" data-name="Pfad 9" class="cls-3" d="M79.87,193.87c-1.55,0-2.49,.58-2.49,1.62,0,1.44,1.84,1.66,4.07,2.31,4.04,1.23,6.06,3.14,6.06,6.13,0,4.07-3.6,5.94-8,5.94-2.76-.07-5.51-.47-8.18-1.19l.14-5.51,4-.25,.5,2.41c.93,.41,1.94,.62,2.95,.61,1.55,0,2.34-.69,2.34-1.55,0-1.51-2.38-1.8-4.58-2.56-2.99-1.01-5.47-2.7-5.47-5.98,0-3.75,3.1-5.88,8.15-5.88,2.56,.03,5.12,.37,7.6,1.01l-.72,5.55-3.97,.18-.58-2.63c-.6-.14-1.22-.21-1.84-.22"/>
            <path id="Pfad_10" data-name="Pfad 10" class="cls-3" d="M88.8,191.06l2.41-.54,.54-4.4,5.33-.21v4.72h4.65v4.76h-4.65l-.07,6.31c0,1.91,.43,2.63,1.98,2.63,.8-.04,1.59-.14,2.38-.29l.76,4.18c-1.65,1-3.55,1.51-5.48,1.48-3.06,0-5.55-1.3-5.51-6.6l.04-7.89h-2.38v-4.14Z"/>
            <path id="Pfad_11" data-name="Pfad 11" class="cls-3" d="M122.17,199.92c0,6.27-3.82,9.91-9.41,9.91s-9.44-3.67-9.44-9.95,3.86-9.84,9.44-9.84,9.41,3.6,9.41,9.87m-12.72-.03c0,2.81,.87,5.12,3.21,5.12,2.52,0,3.42-2.31,3.42-5.08s-.94-5.05-3.32-5.05-3.31,2.27-3.31,5.01"/>
            <path id="Pfad_12" data-name="Pfad 12" class="cls-3" d="M124.18,195.42v-4.25l6.96-1.19,.54,3.28c1.29-2.15,3.65-3.44,6.17-3.35,4.68,0,5.84,3.17,5.84,7.35v7.82l2.05,.47v3.71h-9.73v-3.71l1.8-.47v-7.35c0-1.66-.83-2.49-2.24-2.49-1.25,.01-2.42,.58-3.21,1.55v8.32l1.8,.43v3.71h-9.94v-3.64l2.27-.47v-9.08l-2.31-.65Z"/>
            <path id="Pfad_13" data-name="Pfad 13" class="cls-3" d="M164.25,197.97c0,.86-.11,2.34-.18,3.17h-10.99v.04c.18,2.05,1.26,3.6,4.65,3.6,1.64,0,3.26-.35,4.76-1.01l1.19,4.29c-2.09,1.07-4.42,1.6-6.77,1.55-6.52,0-9.88-4.03-9.88-9.69,0-5.12,2.78-9.87,8.97-9.87,5.26,0,8.25,3.46,8.25,7.93m-11.17-.11h5.44v-.43c0-1.51-.58-3.1-2.38-3.1-1.62,0-2.92,1.3-3.06,3.53"/>
          </g>
        </g>
      </g>
    </g>
  </g>
</svg>