<?xml version="1.0" encoding="UTF-8"?>
<svg id="Ebene_2" data-name="Ebene 2" xmlns="http://www.w3.org/2000/svg" xmlns:xlink="http://www.w3.org/1999/xlink" viewBox="0 0 45 63.18">
  <defs>
    <style>
      .cls-1 {
        fill: #011f26;
      }

      .cls-2 {
        clip-path: url(#clippath);
      }

      .cls-3 {
        fill: none;
      }
    </style>
    <clipPath id="clippath">
      <rect class="cls-3" width="45" height="63.18"/>
    </clipPath>
  </defs>
  <g id="Text">
    <g class="cls-2">
      <g id="Gruppe_5" data-name="Gruppe 5">
        <path id="Pfad_14" data-name="Pfad 14" class="cls-1" d="M45,22.5C44.99,10.07,34.91,0,22.48,.02,10.06,.03-.01,10.11,0,22.54c0,3.48,.81,6.91,2.37,10.03l12.72,26.69c2.18,3.76,6.99,5.04,10.75,2.87,1.19-.69,2.18-1.68,2.87-2.87l13.93-26.69h-.02c1.58-3.12,2.4-6.57,2.39-10.07m-22.5,10.66c-1.19,0-2.38-.2-3.51-.59h-.02c-1.51-.53-2.88-1.39-4-2.53-.75-.71-1.37-1.53-1.85-2.44-.17-.31-.31-.62-.45-.95-1.14-2.65-1.14-5.64,0-8.29,.14-.33,.28-.64,.45-.95,.48-.91,1.1-1.73,1.85-2.44,4.08-4.23,10.82-4.34,15.05-.26,4.23,4.08,4.34,10.82,.26,15.05-.09,.09-.18,.18-.27,.27-1.12,1.15-2.5,2.02-4.03,2.53-1.12,.39-2.3,.59-3.48,.59"/>
      </g>
    </g>
  </g>
</svg>