<svg version="1.1" id="Layer_1" xmlns="http://www.w3.org/2000/svg" xmlns:xlink="http://www.w3.org/1999/xlink" x="0px" y="0px"
	 width="100%" viewBox="0 0 512 512" enable-background="new 0 0 512 512" xml:space="preserve">
<path fill="#000000" opacity="1.000000" stroke="none" 
	d="
M282.531342,1.000000 
	C284.730042,3.861324 287.902557,2.858400 290.275360,3.278735 
	C321.082397,8.736105 348.410187,21.826132 372.405945,41.527035 
	C388.362488,54.627598 401.649445,70.257057 412.237671,88.217972 
	C421.942566,104.680450 428.946625,122.095558 433.289764,140.605621 
	C438.038025,160.842377 438.350525,181.330811 436.420685,201.963150 
	C434.351593,224.084229 428.006165,244.991394 417.525360,264.372559 
	C407.191254,283.482422 395.534485,301.878845 384.399109,320.553162 
	C365.532196,352.193451 346.622650,383.808319 327.724182,415.429779 
	C309.592377,445.768433 291.451111,476.101440 273.316498,506.438446 
	C271.827667,508.929077 269.379272,510.466583 267.192047,512.727112 
	C262.643097,513.000000 258.286194,513.000000 253.464645,513.000000 
	C244.794601,508.157379 241.643799,499.338959 236.884705,491.921082 
	C225.515152,474.199615 214.769882,456.078766 203.675003,438.179626 
	C188.473663,413.655579 173.157715,389.202576 157.935516,364.691376 
	C140.614838,336.801178 123.629089,308.697906 105.956161,281.033203 
	C92.818687,260.468140 83.756386,238.400055 79.335373,214.513138 
	C75.286781,192.638519 75.438225,170.640701 79.048828,148.650879 
	C82.149712,129.765411 88.710236,112.019852 97.556366,95.252541 
	C103.965012,83.105309 111.860313,71.793938 121.140495,61.443817 
	C130.625839,50.864872 140.925217,41.263145 152.535965,33.202896 
	C173.778275,18.456360 196.960815,8.044829 222.603348,3.575989 
	C226.840393,2.837581 231.069244,2.052235 235.650940,1.144292 
	C251.354233,1.000000 266.708466,1.000000 282.531342,1.000000 
M189.919159,355.655243 
	C212.910492,392.520386 235.901825,429.385529 259.338165,466.964203 
	C264.514923,458.273773 268.982574,450.716644 273.504700,443.192261 
	C291.196442,413.755066 308.941010,384.349609 326.597687,354.891449 
	C343.486420,326.714539 360.295258,298.489777 377.129578,270.280304 
	C385.395142,256.429596 393.729523,242.631653 398.681061,227.102676 
	C405.472198,205.804352 407.559662,184.158432 404.775360,161.935379 
	C402.921967,147.142242 398.904175,133.029175 392.662201,119.588417 
	C383.972015,100.876190 372.100708,84.476517 356.654633,70.607796 
	C343.913055,59.167366 329.894318,49.802330 314.084869,43.397900 
	C293.303192,34.979198 271.770844,30.779715 249.117981,32.219254 
	C230.003311,33.433945 211.817093,37.675888 194.579483,45.866730 
	C175.967682,54.710552 159.590454,66.542793 145.864319,82.110939 
	C134.761703,94.703499 125.703156,108.523056 119.379265,123.987976 
	C110.686264,145.246490 106.622246,167.298462 108.186783,190.460815 
	C109.378105,208.098022 113.266403,225.018982 120.608360,240.864182 
	C131.378906,264.108826 146.637421,284.819763 159.812759,306.711761 
	C169.563904,322.914185 179.592926,338.949371 189.919159,355.655243 
z"/>
<path fill="#000000" opacity="1.000000" stroke="none" 
	d="
M307.600830,256.726257 
	C279.515564,274.292206 250.200500,276.783386 220.302063,263.974579 
	C190.504333,251.208954 172.952286,227.943680 167.641449,195.948532 
	C163.320465,169.916702 168.895325,145.782028 185.158600,124.991165 
	C199.435852,106.739212 218.322311,95.168564 241.606644,91.593086 
	C267.841766,87.564468 292.002960,92.936890 313.005554,109.178810 
	C331.552917,123.522011 342.886353,142.695679 346.411163,166.096741 
	C350.272125,191.729431 344.939240,215.216080 329.503601,236.221069 
	C323.557800,244.312180 316.185059,250.906448 307.600830,256.726257 
M314.802948,192.459747 
	C316.608765,185.128372 316.486206,177.724319 315.125092,170.390030 
	C312.449707,155.973816 305.269348,144.139999 293.784546,135.030014 
	C279.654175,123.821465 263.582184,119.225975 245.841827,122.803696 
	C232.351929,125.524223 220.821106,132.232803 211.954620,143.057510 
	C199.921341,157.748428 195.018356,174.352646 199.079422,193.090759 
	C202.096588,207.012207 209.399719,218.483383 220.605042,227.314316 
	C234.644699,238.379013 250.733994,243.141617 268.141449,239.153931 
	C292.697754,233.528595 308.524231,218.077301 314.802948,192.459747 
z"/>
</svg>